<?xml version="1.0" encoding="UTF-8"?>
<svg xmlns="http://www.w3.org/2000/svg" version="1.2" width="220" height="160" viewBox="0 0 220 160">
  <g id="icon">
    <rect x="5" y="5" width="210" height="150" rx="10" fill="#1e1e1e" stroke="#050505" stroke-width="5"/>
    <rect x="20" y="20" width="105" height="85" rx="5" fill="#080808" stroke="#555" stroke-width="2"/>
    <circle cx="72" cy="62" r="31" fill="#171717" stroke="#777" stroke-width="2"/>
    <circle cx="72" cy="62" r="14" fill="#3a3a3a"/>
    <rect x="145" y="18" width="24" height="105" fill="#111" stroke="#666" stroke-width="2"/>
    <g fill="#d8a84e">
      <circle cx="152" cy="28" r="3"/><circle cx="162" cy="28" r="3"/><circle cx="152" cy="38" r="3"/><circle cx="162" cy="38" r="3"/>
      <circle cx="152" cy="48" r="3"/><circle cx="162" cy="48" r="3"/><circle cx="152" cy="58" r="3"/><circle cx="162" cy="58" r="3"/>
      <circle cx="152" cy="68" r="3"/><circle cx="162" cy="68" r="3"/><circle cx="152" cy="78" r="3"/><circle cx="162" cy="78" r="3"/>
      <circle cx="152" cy="88" r="3"/><circle cx="162" cy="88" r="3"/><circle cx="152" cy="98" r="3"/><circle cx="162" cy="98" r="3"/>
      <circle cx="152" cy="108" r="3"/><circle cx="162" cy="108" r="3"/>
    </g>
    <rect x="178" y="55" width="30" height="25" fill="#c9c9c9"/>
    <rect x="128" y="128" width="36" height="18" fill="#c9c9c9"/>
    <rect x="170" y="120" width="34" height="25" fill="#c9c9c9"/>
    <text x="72" y="128" fill="#fff" font-size="14" font-weight="bold" text-anchor="middle" font-family="Arial">JETSON ORIN NANO</text>
  </g>
</svg>
